<svg width="108" height="16" viewBox="0 0 108 16" fill="none" xmlns="http://www.w3.org/2000/svg">
<path fill-rule="evenodd" clip-rule="evenodd" d="M16.3833 5.78789L11.0555 5.01382L8.67381 0.186115C8.60601 0.0708054 8.48223 0 8.34847 0C8.2147 0 8.09093 0.0708054 8.02313 0.186115L5.6403 5.01273L0.311069 5.78789C0.174365 5.80762 0.0607138 5.90324 0.0178921 6.03456C-0.0249296 6.16587 0.010503 6.31011 0.109295 6.40664L3.9655 10.1649L3.05534 15.4712C3.03212 15.6073 3.08806 15.7447 3.19969 15.8259C3.31132 15.907 3.45932 15.9178 3.58155 15.8537L8.3472 13.3486L13.1128 15.8526C13.2351 15.9167 13.3831 15.9059 13.4947 15.8248C13.6063 15.7436 13.6623 15.6062 13.6391 15.4701L12.7289 10.1649L16.5851 6.40664C16.6839 6.31016 16.7193 6.16599 16.6766 6.0347C16.6339 5.9034 16.5203 5.80773 16.3837 5.78789H16.3833Z" fill="#F5A623"/>
<path fill-rule="evenodd" clip-rule="evenodd" d="M39.0285 5.78789L33.7007 5.01382L31.319 0.186115C31.2512 0.0708054 31.1274 0 30.9936 0C30.8599 0 30.7361 0.0708054 30.6683 0.186115L28.2855 5.01273L22.9562 5.78789C22.8195 5.80762 22.7059 5.90324 22.6631 6.03456C22.6202 6.16587 22.6557 6.31011 22.7545 6.40664L26.6107 10.1649L25.7005 15.4712C25.6773 15.6073 25.7332 15.7447 25.8449 15.8259C25.9565 15.907 26.1045 15.9178 26.2267 15.8537L30.9924 13.3486L35.758 15.8526C35.8802 15.9167 36.0282 15.9059 36.1399 15.8248C36.2515 15.7436 36.3074 15.6062 36.2842 15.4701L35.3741 10.1649L39.2303 6.40664C39.329 6.31016 39.3645 6.16599 39.3218 6.0347C39.279 5.9034 39.1655 5.80773 39.0289 5.78789H39.0285Z" fill="#F5A623"/>
<path fill-rule="evenodd" clip-rule="evenodd" d="M61.6736 5.78789L56.3459 5.01382L53.9641 0.186115C53.8963 0.0708054 53.7726 0 53.6388 0C53.505 0 53.3813 0.0708054 53.3134 0.186115L50.9306 5.01273L45.6014 5.78789C45.4647 5.80762 45.351 5.90324 45.3082 6.03456C45.2654 6.16587 45.3008 6.31011 45.3996 6.40664L49.2558 10.1649L48.3457 15.4712C48.3224 15.6073 48.3784 15.7447 48.49 15.8259C48.6016 15.907 48.7496 15.9178 48.8719 15.8537L53.6375 13.3486L58.4032 15.8526C58.5254 15.9167 58.6734 15.9059 58.785 15.8248C58.8967 15.7436 58.9526 15.6062 58.9294 15.4701L58.0192 10.1649L61.8754 6.40664C61.9742 6.31016 62.0097 6.16599 61.9669 6.0347C61.9242 5.9034 61.8107 5.80773 61.674 5.78789H61.6736Z" fill="#F5A623"/>
<path fill-rule="evenodd" clip-rule="evenodd" d="M84.3188 5.78789L78.991 5.01382L76.6093 0.186115C76.5415 0.0708054 76.4177 0 76.284 0C76.1502 0 76.0264 0.0708054 75.9586 0.186115L73.5758 5.01273L68.2466 5.78789C68.1099 5.80762 67.9962 5.90324 67.9534 6.03456C67.9106 6.16587 67.946 6.31011 68.0448 6.40664L71.901 10.1649L70.9908 15.4712C70.9676 15.6073 71.0235 15.7447 71.1352 15.8259C71.2468 15.907 71.3948 15.9178 71.517 15.8537L76.2827 13.3486L81.0483 15.8526C81.1706 15.9167 81.3186 15.9059 81.4302 15.8248C81.5418 15.7436 81.5978 15.6062 81.5745 15.4701L80.6644 10.1649L84.5206 6.40664C84.6194 6.31016 84.6548 6.16599 84.6121 6.0347C84.5694 5.9034 84.4558 5.80773 84.3192 5.78789H84.3188Z" fill="#F5A623"/>
<path fill-rule="evenodd" clip-rule="evenodd" d="M106.964 5.78789L101.636 5.01382L99.2545 0.186115C99.1867 0.0708054 99.0629 0 98.9291 0C98.7953 0 98.6716 0.0708054 98.6038 0.186115L96.2209 5.01273L90.8917 5.78789C90.755 5.80762 90.6414 5.90324 90.5985 6.03456C90.5557 6.16587 90.5911 6.31011 90.6899 6.40664L94.5461 10.1649L93.636 15.4712C93.6128 15.6073 93.6687 15.7447 93.7803 15.8259C93.892 15.907 94.04 15.9178 94.1622 15.8537L98.9278 13.3486L103.693 15.8526C103.816 15.9167 103.964 15.9059 104.075 15.8248C104.187 15.7436 104.243 15.6062 104.22 15.4701L103.31 10.1649L107.166 6.40664C107.265 6.31016 107.3 6.16599 107.257 6.0347C107.215 5.9034 107.101 5.80773 106.964 5.78789H106.964Z" fill="#F5A623"/>
</svg>
