<svg width="289" height="131" viewBox="0 0 289 131" fill="none" xmlns="http://www.w3.org/2000/svg">
<circle cx="286.627" cy="2.39362" r="2.15509" transform="rotate(90 286.627 2.39362)" fill="#29AAF3"/>
<circle cx="286.627" cy="34.0013" r="2.15509" transform="rotate(90 286.627 34.0013)" fill="#29AAF3"/>
<circle cx="286.627" cy="65.6094" r="2.15509" transform="rotate(90 286.627 65.6094)" fill="#29AAF3"/>
<circle cx="286.627" cy="97.2173" r="2.15509" transform="rotate(90 286.627 97.2173)" fill="#29AAF3"/>
<circle cx="286.627" cy="128.826" r="2.15509" transform="rotate(90 286.627 128.826)" fill="#29AAF3"/>
<circle cx="255.019" cy="2.39337" r="2.15509" transform="rotate(90 255.019 2.39337)" fill="#29AAF3"/>
<circle cx="255.019" cy="34.0013" r="2.15509" transform="rotate(90 255.019 34.0013)" fill="#29AAF3"/>
<circle cx="255.019" cy="65.6094" r="2.15509" transform="rotate(90 255.019 65.6094)" fill="#29AAF3"/>
<circle cx="255.019" cy="97.2173" r="2.15509" transform="rotate(90 255.019 97.2173)" fill="#29AAF3"/>
<circle cx="255.019" cy="128.825" r="2.15509" transform="rotate(90 255.019 128.825)" fill="#29AAF3"/>
<circle cx="223.411" cy="2.39337" r="2.15509" transform="rotate(90 223.411 2.39337)" fill="#29AAF3"/>
<circle cx="223.411" cy="34.0013" r="2.15509" transform="rotate(90 223.411 34.0013)" fill="#29AAF3"/>
<circle cx="223.411" cy="65.6094" r="2.15509" transform="rotate(90 223.411 65.6094)" fill="#29AAF3"/>
<circle cx="223.411" cy="97.2173" r="2.15509" transform="rotate(90 223.411 97.2173)" fill="#29AAF3"/>
<circle cx="223.411" cy="128.825" r="2.15509" transform="rotate(90 223.411 128.825)" fill="#29AAF3"/>
<circle cx="191.803" cy="2.39337" r="2.15509" transform="rotate(90 191.803 2.39337)" fill="#29AAF3"/>
<circle cx="191.803" cy="34.0013" r="2.15509" transform="rotate(90 191.803 34.0013)" fill="#29AAF3"/>
<circle cx="191.803" cy="65.6094" r="2.15509" transform="rotate(90 191.803 65.6094)" fill="#29AAF3"/>
<circle cx="191.803" cy="97.2173" r="2.15509" transform="rotate(90 191.803 97.2173)" fill="#29AAF3"/>
<circle cx="191.803" cy="128.825" r="2.15509" transform="rotate(90 191.803 128.825)" fill="#29AAF3"/>
<circle cx="160.195" cy="2.39337" r="2.15509" transform="rotate(90 160.195 2.39337)" fill="#29AAF3"/>
<circle cx="160.195" cy="34.0013" r="2.15509" transform="rotate(90 160.195 34.0013)" fill="#29AAF3"/>
<circle cx="160.195" cy="65.6094" r="2.15509" transform="rotate(90 160.195 65.6094)" fill="#29AAF3"/>
<circle cx="160.195" cy="97.2173" r="2.15509" transform="rotate(90 160.195 97.2173)" fill="#29AAF3"/>
<circle cx="160.195" cy="128.825" r="2.15509" transform="rotate(90 160.195 128.825)" fill="#29AAF3"/>
<circle cx="128.587" cy="2.39337" r="2.15509" transform="rotate(90 128.587 2.39337)" fill="#29AAF3"/>
<circle cx="128.587" cy="34.0013" r="2.15509" transform="rotate(90 128.587 34.0013)" fill="#29AAF3"/>
<circle cx="128.587" cy="65.6094" r="2.15509" transform="rotate(90 128.587 65.6094)" fill="#29AAF3"/>
<circle cx="128.587" cy="97.2173" r="2.15509" transform="rotate(90 128.587 97.2173)" fill="#29AAF3"/>
<circle cx="128.587" cy="128.825" r="2.15509" transform="rotate(90 128.587 128.825)" fill="#29AAF3"/>
<circle cx="96.9789" cy="2.39337" r="2.15509" transform="rotate(90 96.9789 2.39337)" fill="#29AAF3"/>
<circle cx="96.9789" cy="34.0013" r="2.15509" transform="rotate(90 96.9789 34.0013)" fill="#29AAF3"/>
<circle cx="96.9789" cy="65.6094" r="2.15509" transform="rotate(90 96.9789 65.6094)" fill="#29AAF3"/>
<circle cx="96.9789" cy="97.2173" r="2.15509" transform="rotate(90 96.9789 97.2173)" fill="#29AAF3"/>
<circle cx="96.9789" cy="128.825" r="2.15509" transform="rotate(90 96.9789 128.825)" fill="#29AAF3"/>
<circle cx="65.3712" cy="2.39337" r="2.15509" transform="rotate(90 65.3712 2.39337)" fill="#29AAF3"/>
<circle cx="65.3712" cy="34.0013" r="2.15509" transform="rotate(90 65.3712 34.0013)" fill="#29AAF3"/>
<circle cx="65.3712" cy="65.6094" r="2.15509" transform="rotate(90 65.3712 65.6094)" fill="#29AAF3"/>
<circle cx="65.3712" cy="97.2173" r="2.15509" transform="rotate(90 65.3712 97.2173)" fill="#29AAF3"/>
<circle cx="65.3712" cy="128.825" r="2.15509" transform="rotate(90 65.3712 128.825)" fill="#29AAF3"/>
<circle cx="33.763" cy="2.39337" r="2.15509" transform="rotate(90 33.763 2.39337)" fill="#29AAF3"/>
<circle cx="33.763" cy="34.0013" r="2.15509" transform="rotate(90 33.763 34.0013)" fill="#29AAF3"/>
<circle cx="33.763" cy="65.6094" r="2.15509" transform="rotate(90 33.763 65.6094)" fill="#29AAF3"/>
<circle cx="33.763" cy="97.2173" r="2.15509" transform="rotate(90 33.763 97.2173)" fill="#29AAF3"/>
<circle cx="33.763" cy="128.826" r="2.15509" transform="rotate(90 33.763 128.826)" fill="#29AAF3"/>
<circle cx="2.15503" cy="2.39337" r="2.15509" transform="rotate(90 2.15503 2.39337)" fill="#29AAF3"/>
<circle cx="2.15503" cy="34.0015" r="2.15509" transform="rotate(90 2.15503 34.0015)" fill="#29AAF3"/>
<circle cx="2.15502" cy="65.6094" r="2.15509" transform="rotate(90 2.15502 65.6094)" fill="#29AAF3"/>
<circle cx="2.15502" cy="97.2173" r="2.15509" transform="rotate(90 2.15502 97.2173)" fill="#29AAF3"/>
<circle cx="2.15502" cy="128.826" r="2.15509" transform="rotate(90 2.15502 128.826)" fill="#29AAF3"/>
</svg>
