<svg width="131" height="290" viewBox="0 0 131 290" fill="none" xmlns="http://www.w3.org/2000/svg">
<circle cx="2.36282" cy="2.49738" r="2.15509" fill="#7854F7"/>
<circle cx="33.9708" cy="2.49738" r="2.15509" fill="#7854F7"/>
<circle cx="65.5789" cy="2.49738" r="2.15509" fill="#7854F7"/>
<circle cx="97.1867" cy="2.49738" r="2.15509" fill="#7854F7"/>
<circle cx="128.795" cy="2.49738" r="2.15509" fill="#7854F7"/>
<circle cx="2.36282" cy="34.1053" r="2.15509" fill="#7854F7"/>
<circle cx="33.9708" cy="34.1053" r="2.15509" fill="#7854F7"/>
<circle cx="65.5789" cy="34.1053" r="2.15509" fill="#7854F7"/>
<circle cx="97.1867" cy="34.1053" r="2.15509" fill="#7854F7"/>
<circle cx="128.795" cy="34.1053" r="2.15509" fill="#7854F7"/>
<circle cx="2.36282" cy="65.7134" r="2.15509" fill="#7854F7"/>
<circle cx="33.9708" cy="65.7134" r="2.15509" fill="#7854F7"/>
<circle cx="65.5789" cy="65.7134" r="2.15509" fill="#7854F7"/>
<circle cx="97.1867" cy="65.7134" r="2.15509" fill="#7854F7"/>
<circle cx="128.795" cy="65.7134" r="2.15509" fill="#7854F7"/>
<circle cx="2.36282" cy="97.3214" r="2.15509" fill="#7854F7"/>
<circle cx="33.9708" cy="97.3214" r="2.15509" fill="#7854F7"/>
<circle cx="65.5789" cy="97.3214" r="2.15509" fill="#7854F7"/>
<circle cx="97.1867" cy="97.3214" r="2.15509" fill="#7854F7"/>
<circle cx="128.795" cy="97.3214" r="2.15509" fill="#7854F7"/>
<circle cx="2.36282" cy="128.929" r="2.15509" fill="#7854F7"/>
<circle cx="33.9708" cy="128.929" r="2.15509" fill="#7854F7"/>
<circle cx="65.5789" cy="128.929" r="2.15509" fill="#7854F7"/>
<circle cx="97.1867" cy="128.929" r="2.15509" fill="#7854F7"/>
<circle cx="128.795" cy="128.929" r="2.15509" fill="#7854F7"/>
<circle cx="2.36282" cy="160.537" r="2.15509" fill="#7854F7"/>
<circle cx="33.9708" cy="160.537" r="2.15509" fill="#7854F7"/>
<circle cx="65.5789" cy="160.537" r="2.15509" fill="#7854F7"/>
<circle cx="97.1867" cy="160.537" r="2.15509" fill="#7854F7"/>
<circle cx="128.795" cy="160.537" r="2.15509" fill="#7854F7"/>
<circle cx="2.36282" cy="192.145" r="2.15509" fill="#7854F7"/>
<circle cx="33.9708" cy="192.145" r="2.15509" fill="#7854F7"/>
<circle cx="65.5789" cy="192.145" r="2.15509" fill="#7854F7"/>
<circle cx="97.1867" cy="192.145" r="2.15509" fill="#7854F7"/>
<circle cx="128.795" cy="192.145" r="2.15509" fill="#7854F7"/>
<circle cx="2.36282" cy="223.753" r="2.15509" fill="#7854F7"/>
<circle cx="33.9708" cy="223.753" r="2.15509" fill="#7854F7"/>
<circle cx="65.5789" cy="223.753" r="2.15509" fill="#7854F7"/>
<circle cx="97.1867" cy="223.753" r="2.15509" fill="#7854F7"/>
<circle cx="128.795" cy="223.753" r="2.15509" fill="#7854F7"/>
<circle cx="2.36282" cy="255.361" r="2.15509" fill="#7854F7"/>
<circle cx="33.9708" cy="255.361" r="2.15509" fill="#7854F7"/>
<circle cx="65.5789" cy="255.361" r="2.15509" fill="#7854F7"/>
<circle cx="97.1867" cy="255.361" r="2.15509" fill="#7854F7"/>
<circle cx="128.795" cy="255.361" r="2.15509" fill="#7854F7"/>
<circle cx="2.36282" cy="286.97" r="2.15509" fill="#7854F7"/>
<circle cx="33.9708" cy="286.97" r="2.15509" fill="#7854F7"/>
<circle cx="65.5789" cy="286.97" r="2.15509" fill="#7854F7"/>
<circle cx="97.1867" cy="286.97" r="2.15509" fill="#7854F7"/>
<circle cx="128.795" cy="286.97" r="2.15509" fill="#7854F7"/>
</svg>
