<svg width="52" height="37" viewBox="0 0 52 37" fill="none" xmlns="http://www.w3.org/2000/svg">
<rect x="0.0301819" y="0.625977" width="51.2594" height="35.7624" rx="17.8812" fill="#EF4358"/>
<path d="M25.1902 27.747C25.4621 27.8922 25.8034 27.8913 26.0753 27.7461C33.4846 23.7658 34.0108 15.9894 34.0043 13.7782C34.0036 13.6005 33.9511 13.4268 33.8532 13.2785C33.7553 13.1302 33.6163 13.0136 33.4532 12.9431L26.0087 9.64536C25.8902 9.59314 25.7621 9.56625 25.6327 9.56641C25.5032 9.56657 25.3752 9.59377 25.2568 9.64629L17.8641 12.9441C17.7034 13.0146 17.5663 13.1299 17.4693 13.2761C17.3722 13.4224 17.3192 13.5935 17.3167 13.769C17.2852 15.969 17.7282 23.7621 25.1902 27.747ZM22.5879 17.1481L24.7084 19.2686L28.6785 15.2986L29.9862 16.6062L24.7084 21.8839L21.2803 18.4558L22.5879 17.1481Z" fill="white"/>
</svg>
