<svg width="131" height="289" viewBox="0 0 131 289" fill="none" xmlns="http://www.w3.org/2000/svg">
<circle cx="2.39676" cy="2.15509" r="2.15509" fill="#29AAF3"/>
<circle cx="34.0042" cy="2.15509" r="2.15509" fill="#29AAF3"/>
<circle cx="65.6122" cy="2.15509" r="2.15509" fill="#29AAF3"/>
<circle cx="97.2201" cy="2.15509" r="2.15509" fill="#29AAF3"/>
<circle cx="128.828" cy="2.15509" r="2.15509" fill="#29AAF3"/>
<circle cx="2.39624" cy="33.7632" r="2.15509" fill="#29AAF3"/>
<circle cx="34.0042" cy="33.7632" r="2.15509" fill="#29AAF3"/>
<circle cx="65.6122" cy="33.7632" r="2.15509" fill="#29AAF3"/>
<circle cx="97.2201" cy="33.7632" r="2.15509" fill="#29AAF3"/>
<circle cx="128.828" cy="33.7632" r="2.15509" fill="#29AAF3"/>
<circle cx="2.39624" cy="65.3712" r="2.15509" fill="#29AAF3"/>
<circle cx="34.0042" cy="65.3712" r="2.15509" fill="#29AAF3"/>
<circle cx="65.6122" cy="65.3712" r="2.15509" fill="#29AAF3"/>
<circle cx="97.2201" cy="65.3712" r="2.15509" fill="#29AAF3"/>
<circle cx="128.828" cy="65.3712" r="2.15509" fill="#29AAF3"/>
<circle cx="2.39624" cy="96.9791" r="2.15509" fill="#29AAF3"/>
<circle cx="34.0042" cy="96.9791" r="2.15509" fill="#29AAF3"/>
<circle cx="65.6122" cy="96.9791" r="2.15509" fill="#29AAF3"/>
<circle cx="97.2201" cy="96.9791" r="2.15509" fill="#29AAF3"/>
<circle cx="128.828" cy="96.9791" r="2.15509" fill="#29AAF3"/>
<circle cx="2.39624" cy="128.587" r="2.15509" fill="#29AAF3"/>
<circle cx="34.0042" cy="128.587" r="2.15509" fill="#29AAF3"/>
<circle cx="65.6122" cy="128.587" r="2.15509" fill="#29AAF3"/>
<circle cx="97.2201" cy="128.587" r="2.15509" fill="#29AAF3"/>
<circle cx="128.828" cy="128.587" r="2.15509" fill="#29AAF3"/>
<circle cx="2.39624" cy="160.195" r="2.15509" fill="#29AAF3"/>
<circle cx="34.0042" cy="160.195" r="2.15509" fill="#29AAF3"/>
<circle cx="65.6122" cy="160.195" r="2.15509" fill="#29AAF3"/>
<circle cx="97.2201" cy="160.195" r="2.15509" fill="#29AAF3"/>
<circle cx="128.828" cy="160.195" r="2.15509" fill="#29AAF3"/>
<circle cx="2.39624" cy="191.803" r="2.15509" fill="#29AAF3"/>
<circle cx="34.0042" cy="191.803" r="2.15509" fill="#29AAF3"/>
<circle cx="65.6122" cy="191.803" r="2.15509" fill="#29AAF3"/>
<circle cx="97.2201" cy="191.803" r="2.15509" fill="#29AAF3"/>
<circle cx="128.828" cy="191.803" r="2.15509" fill="#29AAF3"/>
<circle cx="2.39624" cy="223.411" r="2.15509" fill="#29AAF3"/>
<circle cx="34.0042" cy="223.411" r="2.15509" fill="#29AAF3"/>
<circle cx="65.6122" cy="223.411" r="2.15509" fill="#29AAF3"/>
<circle cx="97.2201" cy="223.411" r="2.15509" fill="#29AAF3"/>
<circle cx="128.828" cy="223.411" r="2.15509" fill="#29AAF3"/>
<circle cx="2.39624" cy="255.019" r="2.15509" fill="#29AAF3"/>
<circle cx="34.0042" cy="255.019" r="2.15509" fill="#29AAF3"/>
<circle cx="65.6122" cy="255.019" r="2.15509" fill="#29AAF3"/>
<circle cx="97.2201" cy="255.019" r="2.15509" fill="#29AAF3"/>
<circle cx="128.828" cy="255.019" r="2.15509" fill="#29AAF3"/>
<circle cx="2.39624" cy="286.627" r="2.15509" fill="#29AAF3"/>
<circle cx="34.0042" cy="286.627" r="2.15509" fill="#29AAF3"/>
<circle cx="65.6122" cy="286.627" r="2.15509" fill="#29AAF3"/>
<circle cx="97.2201" cy="286.627" r="2.15509" fill="#29AAF3"/>
<circle cx="128.828" cy="286.627" r="2.15509" fill="#29AAF3"/>
</svg>
