<svg width="41" height="40" viewBox="0 0 41 40" fill="none" xmlns="http://www.w3.org/2000/svg">
<rect x="0.871613" y="0.201416" width="39.51" height="39.51" rx="19.755" fill="#FFBA49"/>
<path fill-rule="evenodd" clip-rule="evenodd" d="M15.0799 14.8083H28.1694C28.3241 14.8088 28.4764 14.8467 28.6133 14.9187C28.7502 14.9907 28.8677 15.0946 28.9559 15.2218C29.044 15.3489 29.1001 15.4955 29.1194 15.6489C29.1387 15.8024 29.1207 15.9583 29.0669 16.1033L26.1935 23.7658C26.0527 24.1384 25.6954 24.3865 25.296 24.3865H17.6334C17.2474 24.3865 16.8978 24.1538 16.7494 23.7975L12.2064 12.8927H9.97089V10.9771H12.2055C12.5839 10.9762 12.954 11.0877 13.2689 11.2974C13.5839 11.5072 13.8295 11.8057 13.9746 12.1552L15.0799 14.8083ZM22.4225 20.5552H24.3382V18.6396H22.4225V16.724H20.5069V18.6396H18.5913V20.5552H20.5069V22.4709H22.4225V20.5552ZM18.1121 28.2177C18.9056 28.2177 19.5489 27.5744 19.5489 26.781C19.5489 25.9875 18.9056 25.3442 18.1121 25.3442C17.3187 25.3442 16.6754 25.9875 16.6754 26.781C16.6754 27.5744 17.3187 28.2177 18.1121 28.2177ZM24.817 28.2177C25.6105 28.2177 26.2537 27.5744 26.2537 26.781C26.2537 25.9875 25.6105 25.3442 24.817 25.3442C24.0235 25.3442 23.3803 25.9875 23.3803 26.781C23.3803 27.5744 24.0235 28.2177 24.817 28.2177Z" fill="white"/>
</svg>
