<svg width="78" height="30" viewBox="0 0 78 30" fill="none" xmlns="http://www.w3.org/2000/svg">
<rect x="0.28067" y="0.773682" width="76.8649" height="28.4884" rx="14.2442" fill="#70C217"/>
<path d="M19.1465 20.8704C18.462 20.8704 17.8486 20.7593 17.3064 20.5371C16.7641 20.3148 16.3285 19.9859 15.9996 19.5503C15.6795 19.1147 15.5106 18.5902 15.4929 17.9768H17.9197C17.9553 18.3235 18.0753 18.5902 18.2798 18.7769C18.4842 18.9547 18.7509 19.0436 19.0799 19.0436C19.4177 19.0436 19.6843 18.968 19.8799 18.8169C20.0755 18.6569 20.1733 18.4391 20.1733 18.1635C20.1733 17.9324 20.0933 17.7413 19.9333 17.5901C19.7821 17.439 19.591 17.3146 19.3599 17.2168C19.1376 17.119 18.8176 17.0079 18.3998 16.8834C17.7953 16.6967 17.3019 16.5101 16.9197 16.3234C16.5374 16.1367 16.2085 15.8611 15.9329 15.4966C15.6573 15.1322 15.5195 14.6566 15.5195 14.0698C15.5195 13.1986 15.8351 12.5186 16.4663 12.0297C17.0975 11.5318 17.9197 11.2829 18.9332 11.2829C19.9644 11.2829 20.7956 11.5318 21.4267 12.0297C22.0579 12.5186 22.3957 13.2031 22.4401 14.0832H19.9733C19.9555 13.7809 19.8444 13.5453 19.6399 13.3764C19.4354 13.1986 19.1732 13.1097 18.8532 13.1097C18.5776 13.1097 18.3553 13.1853 18.1864 13.3364C18.0175 13.4787 17.9331 13.6876 17.9331 13.9632C17.9331 14.2654 18.0753 14.501 18.3598 14.6699C18.6443 14.8388 19.0887 15.021 19.6932 15.2166C20.2977 15.4211 20.7867 15.6166 21.16 15.8033C21.5423 15.99 21.8712 16.2611 22.1468 16.6167C22.4224 16.9723 22.5602 17.4301 22.5602 17.9902C22.5602 18.5236 22.4224 19.0081 22.1468 19.4436C21.8801 19.8792 21.489 20.2259 20.9734 20.4837C20.4578 20.7415 19.8488 20.8704 19.1465 20.8704ZM35.1244 19.1236H31.6308L31.0707 20.7771H28.6838L32.0708 11.4163H34.711L38.098 20.7771H35.6845L35.1244 19.1236ZM34.5377 17.3635L33.3776 13.9365L32.2308 17.3635H34.5377ZM46.7428 19.0169H49.7298V20.7771H44.4626V11.4163H46.7428V19.0169ZM58.4314 13.2431V15.1366H61.485V16.8968H58.4314V18.9503H61.885V20.7771H56.1512V11.4163H61.885V13.2431H58.4314Z" fill="white"/>
</svg>
