<svg width="169" height="28" viewBox="0 0 169 28" fill="none" xmlns="http://www.w3.org/2000/svg">
<path d="M167.894 15.2981L158.69 26.4883C158.395 26.8464 158.025 27.0255 157.655 27.0255C157.286 27.0255 156.916 26.8464 156.62 26.4883C156.029 25.7721 156.029 24.6531 156.62 23.9369L163.311 15.7904H141.724C140.91 15.7904 140.245 14.9847 140.245 14C140.245 13.0153 140.91 12.2096 141.724 12.2096H163.311L156.62 4.06306C156.029 3.34689 156.029 2.22786 156.62 1.51168C157.212 0.795504 158.136 0.795504 158.727 1.51168L167.931 12.7019C168.486 13.4629 168.486 14.6266 167.894 15.2981Z" fill="#00CF53"/>
<rect x="76.6571" y="11.8069" width="88.7142" height="4.47534" rx="2.23767" fill="#00CF53"/>
<path d="M1.10553 15.2981L10.3096 26.4883C10.6053 26.8464 10.975 27.0255 11.3446 27.0255C11.7143 27.0255 12.0839 26.8464 12.3796 26.4883C12.971 25.7721 12.971 24.6531 12.3796 23.9369L5.68908 15.7904H27.2762C28.0894 15.7904 28.7548 14.9847 28.7548 14C28.7548 13.0153 28.0894 12.2096 27.2762 12.2096H5.68908L12.3796 4.06306C12.971 3.34689 12.971 2.22786 12.3796 1.51168C11.7882 0.795504 10.8641 0.795504 10.2727 1.51168L1.06856 12.7019C0.514091 13.4629 0.514107 14.6266 1.10553 15.2981Z" fill="#9A9A9A"/>
<rect width="50" height="4.00159" rx="2.00079" transform="matrix(-1 0 0 1 53.3427 12.0193)" fill="#9A9A9A"/>
</svg>
