<svg width="33" height="33" viewBox="0 0 33 33" fill="none" xmlns="http://www.w3.org/2000/svg">
<path d="M30.782 30.2914V21.3491C31.8179 20.4862 32.4786 19.1874 32.4786 17.7369V15.6192L17.4378 7.24837V6.04187H22.8521V0.833618H15.5628V7.24856L0.5 15.6188V17.7369C0.5 19.1978 1.17 20.505 2.21869 21.3678V30.2914H0.500625V32.1663H32.5V30.2914L30.782 30.2914ZM17.4378 2.70856H20.9771V4.16687H17.4378V2.70856ZM29.7571 16.2504H24.6628L20.0001 10.8201L29.7571 16.2504ZM17.4268 10.7014L22.1916 16.2504H17.4268V10.7014ZM23.0511 18.1253C22.8613 19.5002 21.6784 20.5624 20.2523 20.5624C18.8259 20.5624 17.6431 19.5002 17.4534 18.1253H23.0511ZM10.8048 16.2504L15.5518 10.7067V16.2504H10.8048ZM15.5251 18.1253C15.3354 19.5002 14.1525 20.5624 12.7263 20.5624C11.3 20.5624 10.1172 19.5002 9.92744 18.1253H15.5251ZM12.9776 10.8301L8.33625 16.2504H3.2235L12.9776 10.8301ZM2.40156 18.1253H7.99919C7.80944 19.5002 6.62656 20.5624 5.20038 20.5624C3.77419 20.5624 2.59131 19.5002 2.40156 18.1253ZM8.09869 30.2914H4.09369V22.3046C4.44887 22.3906 4.81919 22.4374 5.20044 22.4374C6.73787 22.4374 8.10525 21.6953 8.96338 20.5507C9.8215 21.6954 11.1888 22.4374 12.7264 22.4374C13.699 22.4374 14.6034 22.1404 15.354 21.6325C15.1313 22.7642 14.7332 23.8601 14.1708 24.8725C13.2602 26.5119 11.9373 27.9022 10.3451 28.8932L8.09869 30.2914ZM11.6362 30.2914C13.3642 29.148 14.8029 27.5961 15.81 25.783C16.0706 25.3137 16.3008 24.829 16.5004 24.3326C16.7 24.8289 16.9301 25.3137 17.1908 25.783C18.1979 27.596 19.6366 29.148 21.3646 30.2914H11.6362ZM28.907 30.2914H24.9019L22.6555 28.8932C21.0634 27.9022 19.7404 26.5119 18.8298 24.8725C18.2701 23.8649 17.8733 22.7749 17.6501 21.649C18.3957 22.1466 19.2905 22.4374 20.2522 22.4374C21.7896 22.4374 23.157 21.6953 24.0151 20.5507C24.8732 21.6954 26.2406 22.4374 27.7781 22.4374C28.1672 22.4374 28.5451 22.389 28.907 22.2994V30.2914ZM27.7781 20.5624C26.3518 20.5624 25.169 19.5002 24.9792 18.1254H30.5769C30.3872 19.5002 29.2044 20.5624 27.7781 20.5624Z" fill="#10375C"/>
</svg>
