<svg width="33" height="33" viewBox="0 0 33 33" fill="none" xmlns="http://www.w3.org/2000/svg">
<g clip-path="url(#clip0_1_283)">
<path d="M16.4375 29.6562C17.5766 29.6562 18.5 28.7328 18.5 27.5937C18.5 26.4547 17.5766 25.5312 16.4375 25.5312C15.2984 25.5312 14.375 26.4547 14.375 27.5937C14.375 28.7328 15.2984 29.6562 16.4375 29.6562Z" fill="#10375C"/>
<path d="M22.5719 20.5182C20.9457 18.9071 18.6146 17.9062 16.4882 17.9062C16.488 17.9062 16.4876 17.9062 16.4873 17.9062H16.3972C16.3969 17.9062 16.3967 17.9062 16.3963 17.9062C14.2699 17.9062 11.9386 18.9071 10.3124 20.5182C9.82206 21.0041 9.81837 21.7956 10.3042 22.286C10.5487 22.5327 10.8704 22.6562 11.1922 22.6562C11.5102 22.6562 11.8282 22.5357 12.0719 22.2942C13.2296 21.1472 14.9269 20.4062 16.3964 20.4062C16.3966 20.4062 16.3969 20.4062 16.3971 20.4062H16.4875C16.4877 20.4062 16.4878 20.4062 16.4881 20.4062C17.9574 20.4062 19.6548 21.1473 20.8124 22.2942C21.3027 22.7801 22.0943 22.7766 22.5801 22.286C23.066 21.7956 23.0624 21.0041 22.5719 20.5182Z" fill="#10375C"/>
<path d="M32.1644 10.179C28.0563 5.77131 22.4934 3.34381 16.4998 3.34375C10.5066 3.34381 4.94372 5.77131 0.835543 10.179C0.364919 10.684 0.392731 11.475 0.89773 11.9457C1.40279 12.4163 2.19373 12.3885 2.66441 11.8835C6.29441 7.98874 11.2079 5.84381 16.5002 5.84375C21.7921 5.84381 26.7056 7.98874 30.3355 11.8835C30.5817 12.1476 30.9155 12.2812 31.2502 12.2812C31.5554 12.2812 31.8614 12.1701 32.1022 11.9457C32.6072 11.4749 32.6351 10.684 32.1644 10.179Z" fill="#10375C"/>
<path d="M27.5746 15.3411C24.5379 12.2815 20.6048 10.5966 16.4998 10.5967C12.3939 10.5967 8.46078 12.2817 5.42504 15.3412C4.93879 15.8313 4.94185 16.6227 5.43191 17.109C5.92197 17.5952 6.71341 17.5922 7.19966 17.1021C9.76247 14.5192 13.0653 13.0967 16.4998 13.0967C19.9334 13.0965 23.2363 14.5191 25.8001 17.1022C26.0444 17.3484 26.3658 17.4717 26.6873 17.4717C27.0056 17.4717 27.3241 17.3508 27.5679 17.1088C28.0579 16.6225 28.0609 15.8311 27.5746 15.3411Z" fill="#10375C"/>
</g>
<defs>
<clipPath id="clip0_1_283">
<rect width="32" height="32" fill="white" transform="translate(0.5 0.5)"/>
</clipPath>
</defs>
</svg>
