<svg width="33" height="33" viewBox="0 0 33 33" fill="none" xmlns="http://www.w3.org/2000/svg">
<path d="M28.75 8C30.8179 8 32.5 6.31787 32.5 4.25C32.5 2.18213 30.8179 0.5 28.75 0.5C26.6821 0.5 25 2.18213 25 4.25C25 6.31787 26.6821 8 28.75 8ZM28.75 3C29.4392 3 30 3.56079 30 4.25C30 4.93921 29.4392 5.5 28.75 5.5C28.0608 5.5 27.5 4.93921 27.5 4.25C27.5 3.56079 28.0608 3 28.75 3ZM4.25 8C6.31787 8 8 6.31787 8 4.25C8 2.18213 6.31787 0.5 4.25 0.5C2.18213 0.5 0.5 2.18213 0.5 4.25C0.5 6.31787 2.18213 8 4.25 8ZM4.25 3C4.93921 3 5.5 3.56079 5.5 4.25C5.5 4.93921 4.93921 5.5 4.25 5.5C3.56079 5.5 3 4.93921 3 4.25C3 3.56079 3.56079 3 4.25 3ZM28.7695 9.1875C28.7634 9.1875 28.7573 9.1875 28.7512 9.1875C26.1638 9.1875 25.1829 11.0713 24.5647 12.9153C24.3545 13.5425 23.8982 14.9128 23.5986 15.8125H22.125V12.9375C22.125 10.8696 20.4429 9.1875 18.375 9.1875H14.625C12.5571 9.1875 10.875 10.8696 10.875 12.9375V15.8125H9.40137C9.10181 14.9128 8.64551 13.5425 8.4353 12.9153C7.81689 11.0713 6.83643 9.1875 4.24878 9.1875C4.24268 9.1875 4.23633 9.1875 4.23022 9.1875C2.17334 9.19458 0.5 10.877 0.5 12.9375V19.75C0.5 21.3796 1.54517 22.769 3 23.2849V23.3125C3.03223 23.3125 3.06372 23.3149 3.09546 23.3174C3.23462 23.3625 3.3772 23.3999 3.52295 23.4287C3.95142 23.627 4.25 24.0601 4.25 24.5625V32.5H6.75V24.5625C6.75 24.1936 6.69556 23.8372 6.5957 23.5H8.0625C8.75171 23.5 9.3125 24.0608 9.3125 24.75V32.5H11.8125V24.75C11.8125 22.6821 10.1304 21 8.0625 21H4.25C4.21777 21 4.18628 20.9976 4.15454 20.9951C4.01538 20.95 3.8728 20.9126 3.72705 20.8838C3.29858 20.6855 3 20.2524 3 19.75V12.9375C3 12.2507 3.55591 11.6899 4.23901 11.6875C4.80396 11.6855 5.3855 11.6836 6.0647 13.7097C6.3894 14.6782 7.30469 17.4294 7.31396 17.457L7.59839 18.3125H25.4016L25.686 17.457C25.6953 17.4294 26.6106 14.6782 26.9353 13.7097C27.6143 11.6836 28.196 11.6863 28.761 11.6875C29.4441 11.6899 30 12.2507 30 12.9375V19.75C30 20.2524 29.7014 20.6855 29.2729 20.8838C29.1272 20.9126 28.9846 20.95 28.8455 20.9951C28.8137 20.9976 28.7822 21 28.75 21H25C22.9321 21 21.25 22.6821 21.25 24.75V32.5H23.75V24.75C23.75 24.0608 24.3108 23.5 25 23.5H26.4043C26.3044 23.8372 26.25 24.1936 26.25 24.5625V32.5H28.75V24.5625C28.75 24.0601 29.0486 23.627 29.4771 23.4287C29.6228 23.3999 29.7654 23.3625 29.9045 23.3174C29.9363 23.3149 29.9678 23.3125 30 23.3125V23.2849C31.4548 22.769 32.5 21.3796 32.5 19.75V12.9375C32.5 10.877 30.8267 9.19458 28.7695 9.1875ZM13.375 12.9375C13.375 12.2483 13.9358 11.6875 14.625 11.6875H18.375C19.0642 11.6875 19.625 12.2483 19.625 12.9375V15.8125H13.375V12.9375ZM16.5 8C18.5679 8 20.25 6.31787 20.25 4.25C20.25 2.18213 18.5679 0.5 16.5 0.5C14.4321 0.5 12.75 2.18213 12.75 4.25C12.75 6.31787 14.4321 8 16.5 8ZM16.5 3C17.1892 3 17.75 3.56079 17.75 4.25C17.75 4.93921 17.1892 5.5 16.5 5.5C15.8108 5.5 15.25 4.93921 15.25 4.25C15.25 3.56079 15.8108 3 16.5 3Z" fill="#10375C"/>
</svg>
